<svg width="20" height="20" xmlns="http://www.w3.org/2000/svg">
 <title/>
 <desc/>

 <g>
  <title>background</title>
  <rect fill="none" id="canvas_background" height="402" width="582" y="-1" x="-1"/>
 </g>
 <g>
  <title>Layer 1</title>
  <path fill="#ffffff" id="Shape" d="m5.9,8.1l-1.4,1.4l4.5,4.5l10,-10l-1.4,-1.4l-8.6,8.6l-3.1,-3.1l0,0zm12.1,1.9c0,4.4 -3.6,8 -8,8c-4.4,0 -8,-3.6 -8,-8c0,-4.4 3.6,-8 8,-8c0.8,0 1.5,0.1 2.2,0.3l1.6,-1.6c-1.2,-0.4 -2.5,-0.7 -3.8,-0.7c-5.5,0 -10,4.5 -10,10c0,5.5 4.5,10 10,10c5.5,0 10,-4.5 10,-10l-2,0l0,0z"/>
 </g>
</svg>