<svg width="65" height="50" xmlns="http://www.w3.org/2000/svg"><g stroke="#1C2C40" stroke-width="2" fill="none" fill-rule="evenodd" stroke-linecap="round" stroke-linejoin="round"><g transform="translate(39.737 1)"><circle fill="#FFF" cx="12.126" cy="11.789" r="11.453"/><path d="M16.168 9.263l-5.22 5.053-2.695-2.695"/></g><path d="M42.768 39.737l-9.6-9.095m-12.968 0l-9.768 9.095m41.431-15.495v20.716a3.378 3.378 0 0 1-3.368 3.368H4.705a3.378 3.378 0 0 1-3.368-3.368V16.326a3.378 3.378 0 0 1 3.368-3.368h35.706"/><path d="M2.347 14.137L24.074 33c1.347 1.179 3.705 1.179 5.052 0l14.316-12.463"/></g></svg>