<svg id="visual" viewBox="0 0 900 600" width="900" height="600" xmlns="http://www.w3.org/2000/svg" xmlns:xlink="http://www.w3.org/1999/xlink" version="1.1"><rect x="0" y="0" width="900" height="600" fill="#001220"></rect><path d="M0 448L21.5 440.2C43 432.3 86 416.7 128.8 409.5C171.7 402.3 214.3 403.7 257.2 408.5C300 413.3 343 421.7 385.8 424.2C428.7 426.7 471.3 423.3 514.2 428.7C557 434 600 448 642.8 443.5C685.7 439 728.3 416 771.2 410.5C814 405 857 417 878.5 423L900 429L900 601L878.5 601C857 601 814 601 771.2 601C728.3 601 685.7 601 642.8 601C600 601 557 601 514.2 601C471.3 601 428.7 601 385.8 601C343 601 300 601 257.2 601C214.3 601 171.7 601 128.8 601C86 601 43 601 21.5 601L0 601Z" fill="#a8e063"></path><path d="M0 488L21.5 483C43 478 86 468 128.8 467.2C171.7 466.3 214.3 474.7 257.2 473.3C300 472 343 461 385.8 459.5C428.7 458 471.3 466 514.2 474C557 482 600 490 642.8 484C685.7 478 728.3 458 771.2 450.2C814 442.3 857 446.7 878.5 448.8L900 451L900 601L878.5 601C857 601 814 601 771.2 601C728.3 601 685.7 601 642.8 601C600 601 557 601 514.2 601C471.3 601 428.7 601 385.8 601C343 601 300 601 257.2 601C214.3 601 171.7 601 128.8 601C86 601 43 601 21.5 601L0 601Z" fill="#7cb744"></path><path d="M0 479L21.5 485.3C43 491.7 86 504.3 128.8 504C171.7 503.7 214.3 490.3 257.2 491C300 491.7 343 506.3 385.8 510.8C428.7 515.3 471.3 509.7 514.2 504.5C557 499.3 600 494.7 642.8 493.5C685.7 492.3 728.3 494.7 771.2 495.2C814 495.7 857 494.3 878.5 493.7L900 493L900 601L878.5 601C857 601 814 601 771.2 601C728.3 601 685.7 601 642.8 601C600 601 557 601 514.2 601C471.3 601 428.7 601 385.8 601C343 601 300 601 257.2 601C214.3 601 171.7 601 128.8 601C86 601 43 601 21.5 601L0 601Z" fill="#509026"></path><path d="M0 567L21.5 568.3C43 569.7 86 572.3 128.8 572.5C171.7 572.7 214.3 570.3 257.2 565.3C300 560.3 343 552.7 385.8 546.5C428.7 540.3 471.3 535.7 514.2 537.5C557 539.3 600 547.7 642.8 555.7C685.7 563.7 728.3 571.3 771.2 567.3C814 563.3 857 547.7 878.5 539.8L900 532L900 601L878.5 601C857 601 814 601 771.2 601C728.3 601 685.7 601 642.8 601C600 601 557 601 514.2 601C471.3 601 428.7 601 385.8 601C343 601 300 601 257.2 601C214.3 601 171.7 601 128.8 601C86 601 43 601 21.5 601L0 601Z" fill="#246a02"></path></svg>