<svg id="visual" viewBox="0 0 900 600" width="900" height="600" xmlns="http://www.w3.org/2000/svg" xmlns:xlink="http://www.w3.org/1999/xlink" version="1.1"><rect x="0" y="0" width="900" height="600" fill="#001220"></rect><path d="M0 189L21.5 197.7C43 206.3 86 223.7 128.8 228.3C171.7 233 214.3 225 257.2 216.7C300 208.3 343 199.7 385.8 203.2C428.7 206.7 471.3 222.3 514.2 221.2C557 220 600 202 642.8 206.3C685.7 210.7 728.3 237.3 771.2 247.3C814 257.3 857 250.7 878.5 247.3L900 244L900 0L878.5 0C857 0 814 0 771.2 0C728.3 0 685.7 0 642.8 0C600 0 557 0 514.2 0C471.3 0 428.7 0 385.8 0C343 0 300 0 257.2 0C214.3 0 171.7 0 128.8 0C86 0 43 0 21.5 0L0 0Z" fill="#a8e063"></path><path d="M0 178L21.5 183C43 188 86 198 128.8 190.5C171.7 183 214.3 158 257.2 149.2C300 140.3 343 147.7 385.8 158.3C428.7 169 471.3 183 514.2 183.5C557 184 600 171 642.8 173C685.7 175 728.3 192 771.2 196.2C814 200.3 857 191.7 878.5 187.3L900 183L900 0L878.5 0C857 0 814 0 771.2 0C728.3 0 685.7 0 642.8 0C600 0 557 0 514.2 0C471.3 0 428.7 0 385.8 0C343 0 300 0 257.2 0C214.3 0 171.7 0 128.8 0C86 0 43 0 21.5 0L0 0Z" fill="#7cb744"></path><path d="M0 139L21.5 139.3C43 139.7 86 140.3 128.8 137C171.7 133.7 214.3 126.3 257.2 126.8C300 127.3 343 135.7 385.8 132.5C428.7 129.3 471.3 114.7 514.2 106.8C557 99 600 98 642.8 94.3C685.7 90.7 728.3 84.3 771.2 93.3C814 102.3 857 126.7 878.5 138.8L900 151L900 0L878.5 0C857 0 814 0 771.2 0C728.3 0 685.7 0 642.8 0C600 0 557 0 514.2 0C471.3 0 428.7 0 385.8 0C343 0 300 0 257.2 0C214.3 0 171.7 0 128.8 0C86 0 43 0 21.5 0L0 0Z" fill="#509026"></path><path d="M0 91L21.5 90.3C43 89.7 86 88.3 128.8 80.3C171.7 72.3 214.3 57.7 257.2 58.3C300 59 343 75 385.8 78.5C428.7 82 471.3 73 514.2 68.5C557 64 600 64 642.8 59.5C685.7 55 728.3 46 771.2 40.8C814 35.7 857 34.3 878.5 33.7L900 33L900 0L878.5 0C857 0 814 0 771.2 0C728.3 0 685.7 0 642.8 0C600 0 557 0 514.2 0C471.3 0 428.7 0 385.8 0C343 0 300 0 257.2 0C214.3 0 171.7 0 128.8 0C86 0 43 0 21.5 0L0 0Z" fill="#246a02"></path></svg>