<svg xmlns="http://www.w3.org/2000/svg" xmlns:xlink="http://www.w3.org/1999/xlink" width="539.98" height="67" viewBox="0 0 539.98 67"><defs><style>.cls-1{fill:url(#linear-gradient);}.cls-2{fill:#7a869a;}</style><linearGradient id="linear-gradient" x1="28.54" y1="35.57" x2="11.4" y2="65.24" gradientUnits="userSpaceOnUse"><stop offset="0" stop-color="#344563"/><stop offset="0.92" stop-color="#7a869a"/></linearGradient></defs><title>atlassian-logo-gradient-horizontal-neutral</title><g id="Layer_2" data-name="Layer 2"><g id="Logos"><path class="cls-1" d="M19.64,30.56a1.88,1.88,0,0,0-3.2.35L.21,63.36a1.94,1.94,0,0,0,1.73,2.81h22.6a1.88,1.88,0,0,0,1.74-1.07C31.15,55,28.2,39.7,19.64,30.56Z"/><path class="cls-2" d="M31.55,1a42.79,42.79,0,0,0-2.5,42.26L39.94,65.1a2,2,0,0,0,1.74,1.07h22.6A1.94,1.94,0,0,0,66,63.36L34.85,1A1.83,1.83,0,0,0,31.55,1Z"/><path class="cls-2" d="M296.63,27.06c0,8,3.73,14.42,18.31,17.24,8.7,1.82,10.52,3.23,10.52,6.13s-1.82,4.64-7.95,4.64a44.81,44.81,0,0,1-21.13-5.72V62.44c4.39,2.16,10.19,4.56,21,4.56,15.25,0,21.3-6.79,21.3-16.9m0,0c0-9.53-5.06-14-19.31-17.07-7.87-1.74-9.77-3.48-9.77-6,0-3.15,2.81-4.47,8-4.47,6.3,0,12.51,1.9,18.4,4.56V14.63a41.64,41.64,0,0,0-18-3.73c-14.09,0-21.38,6.14-21.38,16.16"/><polygon class="cls-2" points="492.5 11.73 492.5 66.17 504.1 66.17 504.1 24.66 508.99 35.68 525.39 66.17 539.98 66.17 539.98 11.73 528.38 11.73 528.38 46.87 523.98 36.67 510.81 11.73 492.5 11.73"/><rect class="cls-2" x="406.04" y="11.73" width="12.68" height="54.44"/><path class="cls-2" d="M391.41,50.1c0-9.53-5.05-14-19.3-17.07-7.87-1.74-9.78-3.48-9.78-6,0-3.15,2.82-4.47,8-4.47,6.29,0,12.51,1.9,18.39,4.56V14.63a41.57,41.57,0,0,0-18-3.73C356.7,10.9,349.4,17,349.4,27.06c0,8,3.73,14.42,18.32,17.24,8.7,1.82,10.52,3.23,10.52,6.13s-1.82,4.64-8,4.64a44.8,44.8,0,0,1-21.12-5.72V62.44c4.39,2.16,10.19,4.56,21,4.56,15.24,0,21.29-6.79,21.29-16.9"/><polygon class="cls-2" points="198.15 11.73 198.15 66.17 224.21 66.17 228.31 54.41 210.91 54.41 210.91 11.73 198.15 11.73"/><polygon class="cls-2" points="146.67 11.73 146.67 23.5 160.75 23.5 160.75 66.17 173.51 66.17 173.51 23.5 188.59 23.5 188.59 11.73 146.67 11.73"/><path class="cls-2" d="M128.16,11.73H111.44l-19,54.44H107L109.65,57A36,36,0,0,0,130,57l2.7,9.17h14.5ZM119.8,47.19a24.67,24.67,0,0,1-7-1l7-23.77,7,23.77A24.69,24.69,0,0,1,119.8,47.19Z"/><path class="cls-2" d="M269.13,11.73H252.4l-19,54.44h14.5L250.61,57a36,36,0,0,0,20.31,0l2.69,9.17h14.5Zm-8.36,35.46a24.69,24.69,0,0,1-7-1l7-23.77,7,23.77A24.67,24.67,0,0,1,260.77,47.19Z"/><path class="cls-2" d="M464.4,11.73H447.68l-19,54.44h14.5L445.89,57a36,36,0,0,0,20.3,0l2.69,9.17h14.5ZM456,47.19a24.79,24.79,0,0,1-7-1l7-23.77,7,23.77A24.79,24.79,0,0,1,456,47.19Z"/></g></g></svg>