<?xml version="1.0" encoding="utf-8"?>
<!-- Generator: Adobe Illustrator 19.1.0, SVG Export Plug-In . SVG Version: 6.00 Build 0)  -->
<svg version="1.1" id="Layer_1" xmlns="http://www.w3.org/2000/svg" xmlns:xlink="http://www.w3.org/1999/xlink" x="0px" y="0px"
	 width="14px" height="11.4px" viewBox="-298 391.6 14 11.4" style="enable-background:new -298 391.6 14 11.4;"
	 xml:space="preserve">
<style type="text/css">
	.st0{fill:#60A9DC;}
</style>
<path class="st0" d="M-284.2,393.1c-0.5,0.2-1,0.4-1.6,0.4c0.6-0.3,1-0.9,1.2-1.5c-0.5,0.3-1.1,0.6-1.8,0.7c-0.5-0.5-1.2-0.9-2-0.9
	c-1.5,0-2.7,1.2-2.7,2.8c0,0.2,0,0.4,0.1,0.6c-2.4-0.1-4.4-1.2-5.8-2.9c-0.2,0.4-0.4,0.9-0.4,1.4c0,1,0.5,1.8,1.2,2.3
	c-0.5,0-0.9-0.1-1.3-0.3l0,0c0,1.4,1,2.5,2.2,2.7c-0.1,0.1-0.4,0.2-0.6,0.2c-0.2,0-0.4,0-0.5-0.1c0.3,1.1,1.4,1.9,2.6,1.9
	c-1,0.8-2.2,1.2-3.5,1.2c-0.2,0-0.4,0-0.7,0c1.2,0.8,2.7,1.3,4.3,1.3c5.1,0,7.9-4.3,7.9-7.9c0-0.1,0-0.2,0-0.4
	C-285,394.2-284.5,393.7-284.2,393.1z"/>
</svg>
